<svg xmlns="http://www.w3.org/2000/svg" viewBox="0 0 92.28 86.08"><defs><style>.cls-1,.cls-2,.cls-3{fill:none;stroke-miterlimit:10;}.cls-1{stroke:#00b299;}.cls-1,.cls-2{stroke-width:0.75px;}.cls-2,.cls-3{stroke:#38434b;}.cls-3{stroke-width:0.5px;}</style></defs><title>SwitchDin Icons_RGB</title><g id="Layer_1" data-name="Layer 1"><path class="cls-1" d="M49.11,41a3.55,3.55,0,0,1-2.33-.84,2.72,2.72,0,0,1-1-2.07h.57a2.16,2.16,0,0,0,.79,1.64,3.18,3.18,0,0,0,3.92,0,2.09,2.09,0,0,0,0-3.28,3,3,0,0,0-2-.7,3.55,3.55,0,0,1-2.33-.84,2.66,2.66,0,0,1,0-4.13,3.66,3.66,0,0,1,4.66,0,2.72,2.72,0,0,1,1,2.07h-.57a2.16,2.16,0,0,0-.79-1.64,3.18,3.18,0,0,0-3.92,0,2.09,2.09,0,0,0,0,3.28,3,3,0,0,0,2,.7,3.55,3.55,0,0,1,2.33.84,2.66,2.66,0,0,1,0,4.13A3.55,3.55,0,0,1,49.11,41Z"/><path class="cls-1" d="M46.08,38.07A2.45,2.45,0,0,0,47,39.92a3.38,3.38,0,0,0,4.29,0,2.38,2.38,0,0,0,0-3.71,3.28,3.28,0,0,0-2.14-.77h0A3.28,3.28,0,0,1,47,34.68,2.38,2.38,0,0,1,47,31a3.38,3.38,0,0,1,4.29,0,2.45,2.45,0,0,1,.89,1.85"/><rect class="cls-1" x="48.83" y="27.47" width="0.57" height="2.74"/><line class="cls-1" x1="49.11" y1="27.47" x2="49.11" y2="30.21"/><rect class="cls-1" x="48.83" y="40.69" width="0.57" height="2.74"/><line class="cls-1" x1="49.11" y1="40.69" x2="49.11" y2="43.43"/><path class="cls-2" d="M49.11,46.75a11.3,11.3,0,1,1,11.3-11.3A11.31,11.31,0,0,1,49.11,46.75Z"/><circle class="cls-2" cx="49.11" cy="35.45" r="11.02"/><path class="cls-3" d="M39.38,63.18h-.57c0-1.84,1.82-2.65,2.78-2.82h12.2v.57H41.64S39.38,61.36,39.38,63.18Z"/><path class="cls-3" d="M53.79,60.64H41.64s-2.54.45-2.54,2.54"/><path class="cls-3" d="M53.79,55.18l-10.28,0-7.71-3.6a10.89,10.89,0,0,0-4.58-1H24.63V50h6.59A11.46,11.46,0,0,1,36,51l7.65,3.57h10.1Z"/><path class="cls-3" d="M24.63,50.26h6.59a11.1,11.1,0,0,1,4.7,1l7.71,3.6H53.79"/><polygon class="cls-3" points="24.92 69.98 12.26 69.98 12.26 69.41 24.35 69.41 24.35 47.89 14.66 47.89 14.66 47.33 24.92 47.33 24.92 69.98"/><polyline class="cls-3" points="14.66 47.61 24.63 47.61 24.63 69.69 12.26 69.69"/><path class="cls-3" d="M53.7,60.92v-.57a2.59,2.59,0,0,0,0-5.18v-.57a3.16,3.16,0,0,1,0,6.32Z"/><path class="cls-3" d="M53.7,54.89a2.87,2.87,0,0,1,0,5.75"/><path class="cls-3" d="M46.46,72.39A8.51,8.51,0,0,1,43.77,72L29.89,67.33H24.63v-.57H30l13.92,4.64a8,8,0,0,0,6.18-.48l24.09-12.6A2.84,2.84,0,1,0,72,53.08L55.25,60.51,55,60l16.8-7.44a3.41,3.41,0,1,1,2.63,6.29L50.38,71.44A8.56,8.56,0,0,1,46.46,72.39Z"/><path class="cls-3" d="M24.63,67h5.3l13.92,4.64a8.25,8.25,0,0,0,6.4-.5l24.09-12.6a3.12,3.12,0,0,0-2.4-5.77l-16.8,7.44"/><rect class="cls-3" x="19.86" y="64.29" width="0.57" height="1.8"/><line class="cls-3" x1="20.14" y1="66.09" x2="20.14" y2="64.29"/><rect class="cls-3" x="16.56" y="64.29" width="0.57" height="1.8"/><line class="cls-3" x1="16.84" y1="66.09" x2="16.84" y2="64.29"/></g></svg>