<svg xmlns="http://www.w3.org/2000/svg" viewBox="0 0 92.28 86.08"><defs><style>.cls-1,.cls-2,.cls-3{fill:none;stroke-linecap:round;stroke-linejoin:round;}.cls-1{stroke:#38434b;}.cls-2{stroke:#37424a;}.cls-3{stroke:#00b299;}</style></defs><title>SwitchDin Icons_RGB</title><g id="Layer_1" data-name="Layer 1"><line class="cls-1" x1="37.73" y1="70.3" x2="52.57" y2="70.3"/><path class="cls-1" d="M66.17,44.34A21,21,0,1,0,37.73,64V70.3a7.42,7.42,0,0,0,7.42,7.42h0a7.42,7.42,0,0,0,7.42-7.42V64A21,21,0,0,0,66.17,44.34Z"/><line class="cls-2" x1="32.31" y1="36.47" x2="50.83" y2="36.47"/><circle class="cls-3" cx="54.28" cy="36.55" r="3.5"/><line class="cls-2" x1="32.46" y1="51.27" x2="44.28" y2="51.27"/><line class="cls-2" x1="51.59" y1="51.34" x2="57.4" y2="51.34"/><circle class="cls-3" cx="47.93" cy="51.33" r="3.5"/><line class="cls-2" x1="38.31" y1="44.01" x2="57.11" y2="44.01"/><circle class="cls-3" cx="34.79" cy="43.94" r="3.5"/><line class="cls-3" x1="26.1" y1="62.59" x2="22.36" y2="65.73"/><line class="cls-3" x1="19.18" y1="45.94" x2="14.37" y2="45.98"/><line class="cls-3" x1="26.54" y1="26.63" x2="23.42" y2="23.35"/><line class="cls-3" x1="63.87" y1="61.96" x2="67.62" y2="65.11"/><line class="cls-3" x1="70.8" y1="45.32" x2="75.61" y2="45.36"/><line class="cls-3" x1="63.43" y1="26" x2="66.56" y2="22.73"/><line class="cls-3" x1="44.24" y1="18.77" x2="44.25" y2="14.28"/></g></svg>