<svg xmlns="http://www.w3.org/2000/svg" viewBox="0 0 92.28 86.08"><defs><style>.cls-1,.cls-2{fill:none;stroke-linecap:round;stroke-linejoin:round;}.cls-1{stroke:#00b299;}.cls-2{stroke:#38434b;}</style></defs><title>SwitchDin Icons_RGB</title><g id="Layer_1" data-name="Layer 1"><path class="cls-1" d="M61,56.49a3.59,3.59,0,0,0,5.08,0l.12-.13h0a3.59,3.59,0,0,0-.09-4.91L53,38"/><path class="cls-1" d="M48,64.38l1.69,1.69a3.69,3.69,0,0,1,0,5.21h0a3.67,3.67,0,0,1-1.68,1"/><path class="cls-1" d="M58.43,53.91l3.6,3.6a3.71,3.71,0,0,1,0,5.25h0a3.71,3.71,0,0,1-5.25,0h0l-3.6-3.6"/><path class="cls-1" d="M56.07,62.05a3.69,3.69,0,0,1,0,5.21h0a3.69,3.69,0,0,1-5.21,0"/><path class="cls-2" d="M23.12,56.67l1-1a3.71,3.71,0,0,1,5.25,0h0a3.71,3.71,0,0,1,0,5.25l-1,1a3.71,3.71,0,0,1-5.25,0h0A3.71,3.71,0,0,1,23.12,56.67Z"/><path class="cls-2" d="M34.65,66.07l.5-.5a3.69,3.69,0,0,1,5.21,0h0a3.69,3.69,0,0,1,0,5.21l-.5.5a3.69,3.69,0,0,1-5.21,0h0A3.69,3.69,0,0,1,34.65,66.07Z"/><path class="cls-2" d="M24.08,55.71l-.55.55a3.59,3.59,0,0,1-5.08,0l-.12-.13h0a3.59,3.59,0,0,1,.08-4.91l.55-.56A3.6,3.6,0,0,1,24,50.57h0a3.59,3.59,0,0,1,.12,5.08Z"/><path class="cls-2" d="M66.25,43.64V39.24l3.92-4L56.53,21.62,54.1,24.06H48a11.58,11.58,0,0,0-8.14,3.34l-8.7,9a3.22,3.22,0,0,0,4.11,4.9l9.27-6a8.42,8.42,0,0,0,12.75-.13"/><polyline class="cls-1" points="19.25 43.64 19.25 39.24 15.34 35.25 28.97 21.62 31.41 24.06 36.22 24.06"/><path class="cls-2" d="M29.09,61.2l.28-.28a3.69,3.69,0,0,1,5.21,0h0a3.69,3.69,0,0,1,0,5.21l-.28.28a3.69,3.69,0,0,1-5.21,0h0A3.69,3.69,0,0,1,29.09,61.2Z"/></g></svg>