<svg xmlns="http://www.w3.org/2000/svg" viewBox="0 0 92.28 86.08"><defs><style>.cls-1{fill:none;stroke:#37424a;stroke-miterlimit:10;}</style></defs><title>SwitchDin Icons_RGB</title><g id="Layer_1" data-name="Layer 1"><line class="cls-1" x1="10.78" y1="20.26" x2="40.26" y2="20.26"/><line class="cls-1" x1="24" y1="73.42" x2="24" y2="20.55"/><line class="cls-1" x1="26.76" y1="73.42" x2="26.76" y2="20.55"/><polyline class="cls-1" points="11.77 19.82 11.77 16 14.68 16 14.68 19.82"/><polyline class="cls-1" points="17.02 19.8 17.02 15.97 19.93 15.97 19.93 19.8"/><polyline class="cls-1" points="31.43 19.75 31.43 15.93 34.33 15.93 34.33 19.75"/><polyline class="cls-1" points="36.68 19.73 36.68 15.9 39.59 15.9 39.59 19.73"/><line class="cls-1" x1="54.79" y1="28.54" x2="84.28" y2="28.54"/><line class="cls-1" x1="68.01" y1="64.13" x2="68.01" y2="28.83"/><line class="cls-1" x1="70.77" y1="64.13" x2="70.77" y2="28.83"/><polyline class="cls-1" points="55.78 28.1 55.78 24.28 58.69 24.28 58.69 28.1"/><polyline class="cls-1" points="61.04 28.08 61.04 24.25 63.94 24.25 63.94 28.08"/><polyline class="cls-1" points="75.44 28.03 75.44 24.2 78.35 24.2 78.35 28.03"/><polyline class="cls-1" points="80.69 28 80.69 24.18 83.6 24.18 83.6 28"/><path class="cls-1" d="M36.71,20.11S54.65,36.67,82,28.54"/><path class="cls-1" d="M13,20.4s22.44,25.93,49.53,8"/></g></svg>