<svg xmlns="http://www.w3.org/2000/svg" viewBox="0 0 92.28 86.08"><defs><style>.cls-1,.cls-2,.cls-3{fill:none;stroke-miterlimit:10;}.cls-1,.cls-2{stroke:#38434b;}.cls-1,.cls-3{stroke-linecap:square;}.cls-3{stroke:#03b299;}</style></defs><title>SwitchDin Icons_RGB</title><g id="Layer_1" data-name="Layer 1"><path class="cls-1" d="M44.85,47.9h0c-6.63,0-12-7.78-12-14.41v-2.4a12,12,0,0,1,12-12h0a12,12,0,0,1,12,12v2.4C56.86,40.12,51.48,47.9,44.85,47.9Z"/><path class="cls-2" d="M54.24,54.59a64.77,64.77,0,0,0-9.39-.68,63.57,63.57,0,0,0-18,2.57,8.4,8.4,0,0,0-6,8.06v5H46"/><polyline class="cls-3" points="59.26 61.11 61.66 63.51 66.46 58.71"/><circle class="cls-3" cx="62.86" cy="61.11" r="10.81"/></g></svg>